<svg width="35" height="22" viewBox="0 0 35 22" fill="none" xmlns="http://www.w3.org/2000/svg">
<path d="M20.0193 9.51212C18.164 9.68898 16.2894 9.56665 14.4711 9.15398C13.5153 8.93585 12.0053 8.66319 11.6837 7.52244C11.1161 5.50033 14.3822 4.41558 15.7796 4.35663C17.835 4.21366 22.7075 3.94542 23.8648 6.43327C24.9125 8.68088 21.4019 9.38095 20.0193 9.51212ZM20.0193 8.7133C20.3157 8.68382 20.7677 8.65582 21.2359 8.57918C19.6592 7.75678 16.2894 7.51654 14.7705 8.40085C16.4924 8.7811 18.2662 8.88574 20.0193 8.7133ZM21.0981 5.48559C19.474 4.97564 17.4527 5.03754 15.7811 5.15397C14.9039 5.19082 13.7465 5.40895 13.136 6.14439C12.3921 7.04049 13.053 7.71404 13.8547 8.09576C14.9068 7.0906 16.7873 7.14513 18.1418 7.17166C19.5955 7.20114 21.0981 7.33968 22.2496 8.30357C22.6571 8.12671 22.9742 7.86731 23.0542 7.47232C23.2913 6.29178 21.9487 5.75235 21.0981 5.48559Z" fill="white"/>
<path d="M0.987716 10.9683C0.980306 10.902 0.987715 10.8445 1.0055 10.7958C1.01291 10.3419 1.0381 9.8806 1.10034 9.40455C1.45303 6.72953 2.90528 4.55709 5.42004 2.94766C6.74781 2.09873 8.29193 1.6212 9.78567 1.15989L10.0835 1.06851C11.8811 0.511403 13.4252 0.203371 14.9441 0.101677C15.9148 0.0353539 16.8972 0.00292969 17.8619 0.00292969C20.519 0.00292969 22.9982 0.246112 25.2314 0.72511C27.5031 1.21295 30.5958 2.37581 32.4304 5.14515C33.8456 7.28222 34.379 10.1415 33.896 12.9889C33.3195 16.3758 31.4345 18.7251 28.2929 19.972C25.5426 21.0641 22.2883 21.6389 18.3436 21.7258C18.0946 21.7288 17.8456 21.7317 17.5967 21.7317C15.3813 21.7317 12.4768 21.6006 9.65971 20.5762C7.38946 19.7509 4.81691 18.8165 3.04902 16.8091C1.71829 15.2984 1.03217 13.35 1.00698 11.1186C0.999571 11.067 0.992161 11.0125 0.987716 10.9683ZM32.5252 7.01103C31.4968 4.54088 29.2502 2.68974 26.199 1.79659C23.5242 1.01398 20.6894 0.904918 17.5285 0.85186C17.3952 0.848912 17.2633 0.848913 17.1299 0.848913C14.3825 0.848913 11.7121 1.32349 8.72909 2.34339C6.74188 3.02282 3.25945 4.63226 2.25621 7.78922C1.97465 8.67205 1.80572 9.64478 1.76571 10.5895C1.75681 10.6927 1.75681 10.8003 1.75385 10.9079C1.75978 10.9285 1.77015 10.9462 1.77311 10.9698C1.80423 11.2439 2.02207 12.4922 2.28585 12.5939C2.72449 12.7634 3.07273 12.0707 3.50099 12.0737C3.92481 12.0766 3.97223 12.0383 4.29528 12.3552C4.67168 12.7236 4.78431 13.577 4.92805 14.0471C5.1859 14.8843 5.25555 16.056 6.00094 15.0258C6.53145 14.2918 6.82486 12.9285 7.95406 13.602C8.61943 13.9985 8.85505 15.1776 9.66267 15.2852C10.3251 15.3736 11.475 14.7045 12.1211 14.5527C13.3333 14.2667 13.9275 14.1916 14.3514 15.4679C14.7959 16.8047 15.362 19.0287 17.0069 17.4547C17.6723 16.818 18.2265 15.9941 18.9852 15.465C20.1144 14.6779 20.845 15.2807 21.7741 16.1105C22.5966 16.8445 23.01 16.7531 24.037 16.2815C24.2533 16.1827 24.3734 15.9528 24.6327 15.8968C25.0906 15.7981 25.3529 15.944 25.673 16.2505C26.1783 16.7339 25.9456 17.3647 26.7103 17.3309C27.3845 17.3014 27.4364 16.4878 27.5846 15.9027C27.7328 15.3161 27.7535 14.5615 28.1062 14.0516C28.4248 13.5902 29.025 13.2734 29.5837 13.4281C30.009 13.546 30.1083 13.941 30.4165 14.1842C31.5086 15.0435 32.5934 14.7428 33.0039 13.3028C33.0068 13.2925 33.0142 13.2866 33.0172 13.2763C33.0528 13.1054 33.0987 12.9388 33.1269 12.7649L33.2128 12.1311C33.4099 10.3316 33.1728 8.56299 32.5252 7.01103ZM9.40038 19.6241C11.724 20.5247 14.2684 20.9255 17.6515 20.9255C17.8723 20.9255 18.0931 20.9241 18.3139 20.9211C23.2249 20.8135 29.8652 20.1282 32.2022 15.6772C31.762 15.9056 31.2612 15.941 30.7381 15.63C30.3928 15.4252 30.1809 14.9093 29.8623 14.7487C28.5241 14.0781 28.6101 14.9874 28.4352 15.7288C28.2589 16.476 28.0973 17.4473 27.5831 18.056C26.159 19.7465 25.83 17.0862 24.8401 16.9948C24.2 16.9359 23.7776 17.7082 23.0574 17.7214C21.8304 17.7465 21.4733 16.4362 20.5086 16.0221C18.7629 15.2748 17.7834 18.8784 16.0896 19.0081C13.7971 19.1849 14.2491 15.3073 12.5301 15.269C11.0794 15.2365 9.88051 16.7723 8.59423 15.6168C8.31712 15.3677 8.04149 14.5527 7.73771 14.4804C7.00269 14.3051 6.87969 15.1378 6.59962 15.5888C6.36844 15.9602 6.04984 16.5866 5.52377 16.5689C5.03326 16.5527 4.83321 16.0648 4.64797 15.6875C4.42865 15.2409 4.09819 12.9418 3.67586 12.8253C3.13497 12.6765 2.73041 13.6684 2.0769 13.4473C2.28881 14.2137 2.60445 14.8961 3.02086 15.4841C4.51905 17.6109 6.70187 18.5792 9.40038 19.6241Z" fill="white"/>
<path d="M26.6494 11.1186C26.1634 11.2645 25.9544 10.4952 26.4405 10.3493C28.0469 9.86584 29.5628 8.94763 30.1333 7.26598C30.2964 6.78256 31.058 6.99037 30.8921 7.47822C30.2267 9.43842 28.5388 10.5512 26.6494 11.1186Z" fill="white"/>
<path d="M24.926 11.5121C24.4192 11.5121 24.4192 10.7133 24.926 10.7133C25.4328 10.7133 25.4328 11.5121 24.926 11.5121Z" fill="white"/>
</svg>
