<svg width="50" height="70" viewBox="0 0 50 70" fill="none" xmlns="http://www.w3.org/2000/svg">
<path d="M20.2938 68.115C20.2715 68.4319 20.4138 68.6618 20.6702 68.8269C20.6717 68.8284 20.6731 68.8284 20.6746 68.8284C21.1488 69.1335 22.0142 69.2219 22.9597 69.247C23.0812 69.2499 23.1894 69.2543 23.2857 69.2617C23.3109 69.2632 23.3361 69.2647 23.3613 69.2676C23.3805 69.2691 23.4013 69.2705 23.4191 69.272C24.3512 69.3605 24.2326 69.6316 25.9946 69.9073C28.004 70.2212 28.7924 69.6582 28.9317 69.387C29.0488 69.1571 28.2011 68.8254 27.2542 68.4496C27.2083 68.4319 27.1623 68.4128 27.1164 68.3951C26.9904 68.345 26.863 68.2934 26.737 68.2433C25.6108 67.7805 24.5068 67.2484 24.3052 66.0664C24.0918 64.8136 25.2403 61.4385 25.2403 61.4385L22.0617 60.8696C22.0617 60.8696 21.4971 64.4422 21.217 65.5476C21.0658 66.1386 20.7591 66.594 20.5635 67.0952C20.5501 67.1305 20.5368 67.1659 20.5235 67.2013C20.4182 67.4946 20.3145 67.7967 20.2938 68.115Z" fill="#E49963"/>
<path d="M20.2938 68.115C20.2715 68.4319 20.4138 68.6618 20.6702 68.8269C20.6717 68.8284 20.6731 68.8284 20.6746 68.8284C21.1829 69.1069 22.0335 69.2027 22.9582 69.241C23.0797 69.2469 23.1879 69.2528 23.2857 69.2617C23.3109 69.2632 23.3361 69.2646 23.3613 69.2676C23.3805 69.269 23.4013 69.2705 23.4191 69.272C24.3512 69.3604 24.2326 69.6316 25.9946 69.9072C28.004 70.2212 28.7924 69.6581 28.9317 69.387C29.0488 69.157 28.2011 68.8254 27.2542 68.4496C26.9756 68.5351 25.6478 68.8917 24.1348 68.4938C22.8041 68.146 21.5119 67.3855 20.565 67.0936C20.5516 67.129 20.5383 67.1644 20.5249 67.1998C20.4183 67.4945 20.3145 67.7967 20.2938 68.115Z" fill="#233862"/>
<path d="M41.3293 66.2226C41.5071 67.1099 42.7786 66.961 44.1997 66.6161C45.6193 66.2713 45.283 66.681 47.3042 66.4584C49.3255 66.2359 49.9375 65.4857 49.9998 65.188C50.0546 64.9227 49.0558 64.8298 47.9844 64.706C47.8496 64.6913 47.7147 64.6751 47.5799 64.6574C46.3707 64.5071 45.4845 63.7304 44.3864 63.0922C43.3461 62.4879 41.7931 60.0281 41.7931 60.0281L39.0205 60.2462C39.0205 60.2462 40.4757 62.4437 41.0374 63.3987C41.3678 63.9603 41.35 64.7031 41.31 65.2779C41.2863 65.5918 41.2656 65.9102 41.3293 66.2226Z" fill="#E49963"/>
<path d="M44.1985 66.6175C45.6182 66.2726 45.2818 66.6824 47.3031 66.4598C49.3244 66.2373 49.9364 65.4871 49.9986 65.1893C50.0534 64.9241 49.0547 64.8312 47.9833 64.7074L47.9729 64.728C47.9729 64.728 46.7607 65.5829 45.0787 65.6227C43.708 65.6551 42.2558 65.2645 41.3088 65.2807C41.2881 65.5932 41.2673 65.9115 41.3296 66.224C41.5074 67.1098 42.7789 66.9624 44.1985 66.6175Z" fill="#233862"/>
<path d="M35.1616 25.7317C35.1616 25.7317 35.8225 24.1223 36.5487 24.0574C37.2748 23.9911 39.5866 23.63 39.7525 23.9587C39.917 24.2873 39.7525 25.4694 39.2576 25.8968C38.7626 26.3242 35.6907 27.014 35.6907 27.014L35.1616 25.7317Z" fill="#E49963"/>
<path d="M30.7055 48.5954L24.7321 64.5851C24.7321 64.5851 23.8148 64.6736 22.9345 64.4215C22.1254 64.1901 21.1978 63.58 21.1978 63.58C21.1978 63.58 22.6796 48.227 25.3959 45.0332C28.1122 41.8394 30.7055 48.5954 30.7055 48.5954Z" fill="#DBA721"/>
<path d="M7.07703 42.1267C7.07703 42.1267 24.2432 36.3537 28.0709 37.5814C31.8986 38.8091 43.3936 61.5548 43.3936 61.5548C43.3936 61.5548 43.1343 61.8982 42.4259 62.162C41.768 62.4082 40.1735 62.392 40.1735 62.392C40.1735 62.392 29.8003 53.5489 28.5644 50.9697C27.33 48.3905 26.835 45.9336 25.6006 46.1797C24.3662 46.4259 9.67033 52.1974 6.3346 48.759C3.00036 45.3205 3.87171 40.8518 3.87171 40.8518L7.07703 42.1267Z" fill="#EBBE3F"/>
<path d="M17.567 15.2705C17.8411 14.7075 18.1479 13.7082 18.2975 11.9249C18.2738 12.1017 17.9656 14.3493 17.0957 15.6227C13.5259 17.9543 6.68255 25.7377 6.81888 27.213C6.81888 27.213 4.40786 23.1467 4.36785 23.1231C4.36785 23.1231 -0.0778048 17.5004 5.19177 14.2786C7.86953 12.6411 7.8562 10.5409 7.74506 8.7163C7.63244 6.89169 8.47562 -0.965351 13.84 1.09066C13.84 1.09066 14.701 0.710404 15.0863 0.767884C15.0863 0.767884 14.7707 0.828312 14.6106 0.991908C15.233 0.955062 16.1221 1.00075 16.8631 1.4208C18.831 2.5306 20.59 12.5026 17.567 15.2705Z" fill="#163560"/>
<path d="M16.8856 15.7391C16.9033 15.7465 15.1621 16.647 13.8521 16.2903C12.6192 15.9558 11.8145 14.367 11.8323 14.364C12.3539 14.2608 12.5051 13.5475 12.4932 10.4834L12.7289 10.5291L16.6959 11.3102C16.6959 11.3102 16.6055 12.5512 16.6025 13.7214C16.5996 14.703 16.6603 15.633 16.8856 15.7391Z" fill="#E49963"/>
<path d="M16.696 11.3088C16.696 11.3088 16.6056 12.5498 16.6026 13.72C14.3828 13.6581 13.2091 11.6434 12.729 10.5277L16.696 11.3088Z" fill="#D68D5D"/>
<path d="M12.32 10.0988C12.32 10.0988 11.1567 8.2712 10.8781 6.70746C10.6795 5.59176 11.25 1.4547 15.429 2.0516C15.429 2.0516 16.6426 2.17098 17.7837 2.93738C18.6906 3.54755 20.0006 4.86221 18.5365 8.47165L18.1556 9.69051L12.32 10.0988Z" fill="#163560"/>
<path d="M17.4369 12.4171C17.4369 12.4171 12.1851 12.5025 12.1821 9.24978C12.1792 5.99554 11.499 3.81573 14.851 3.62414C18.2045 3.43106 18.8565 4.67204 19.1233 5.75826C19.39 6.843 18.8032 12.3109 17.4369 12.4171Z" fill="#E49963"/>
<path d="M17.2424 3.54316C17.2424 3.54316 15.8049 7.36041 13.5969 7.92489C11.3904 8.48938 10.4331 7.90131 10.4331 7.90131C10.4331 7.90131 10.6465 6.56454 10.9977 4.22998C10.9977 4.22998 16.1576 1.72739 17.2424 3.54316Z" fill="#163560"/>
<path d="M16.8857 3.85405C16.8857 3.85405 17.9601 4.70592 18.2209 5.53421C18.4832 6.36251 18.6003 8.06774 19.0997 8.01026C19.0997 8.01026 20.183 5.41631 18.9648 3.94837C17.6756 2.39201 16.8857 3.85405 16.8857 3.85405Z" fill="#163560"/>
<path d="M5.19229 29.7906C4.67511 27.63 6.43707 23.4384 8.27609 19.9675C9.94469 16.8223 11.677 14.2711 11.8326 14.3625C16.2338 16.9609 16.6324 14.8002 16.6324 14.8002C16.6324 14.8002 20.6306 15.3279 21.7627 17.2674C23.3291 19.9483 25.0332 27.9911 26.7093 27.8717C27.4784 27.8172 35.2182 24.924 35.2182 24.924C35.2182 24.924 36.5075 26.1252 36.26 27.599C36.26 27.599 32.4382 30.1444 29.2077 31.7685C27.4991 32.6278 25.9535 33.2291 25.2274 33.0581C23.7559 32.7133 21.456 29.319 20.2127 27.3205C20.2097 27.3161 20.2067 27.3116 20.2038 27.3072C18.6182 36.2357 20.7743 38.2682 19.6822 39.21C18.5293 40.2048 16.8829 38.7369 13.2597 40.2976C10.8842 41.3234 7.58553 42.8047 5.36567 43.0626C4.20091 43.1982 3.33253 42.9977 3.04949 42.2151C2.22704 39.9439 6.17923 33.9086 5.19229 29.7906Z" fill="#FF785B"/>
<path d="M16.269 10.445C16.269 10.445 16.3668 10.8577 17.4012 10.7943C17.4012 10.7943 18.2696 10.7413 18.2429 10.2873C18.2429 10.2859 17.4012 9.9631 16.269 10.445Z" fill="white"/>
<path d="M3.05085 42.2167C3.33389 42.9993 4.20228 43.1997 5.36704 43.0641C6.90375 42.398 13.5411 39.8409 13.4655 38.1076C13.3559 35.5417 12.1896 35.4606 13.0121 32.2933C13.673 29.7509 7.54096 25.0229 6.56292 23.9956C4.7239 27.4665 4.67352 27.6301 5.19069 29.7907C6.17911 33.9087 2.22692 39.944 3.05085 42.2167Z" fill="#F25B3B"/>
<path d="M20.2129 27.3205C21.4547 29.3191 23.7546 32.7133 25.2276 33.0582C25.9537 33.2292 27.4978 32.6278 29.2079 31.7686C27.9602 32.0884 26.748 32.0796 25.5714 31.9661C24.2955 31.8437 23.925 30.2874 21.9082 27.9543C20.5982 26.4407 20.2766 26.8209 20.2129 27.3205Z" fill="#3B76CA"/>
<path d="M14.0625 32.2328C14.0625 32.2328 15.1739 31.3736 16.2231 31.5784C17.2722 31.7833 17.7879 32.4996 17.7465 32.8268C17.705 33.154 17.1493 34.0751 16.3461 34.1577C15.5429 34.2402 13.2578 33.6669 13.2578 33.6669L14.0625 32.2328Z" fill="#E49963"/>
<path d="M11.8323 14.3625C11.8323 14.3625 7.55264 14.6249 6.07075 16.6809C3.98425 19.574 -1.02157 32.4436 1.35094 34.0884C4.0213 35.941 14.3738 34.0339 14.3738 34.0339C14.3738 34.0339 14.6894 32.5674 14.2508 31.857C13.8121 31.1481 6.67536 30.0014 6.34638 29.6728C6.0174 29.3456 10.4631 23.2852 10.4631 22.3036C10.4631 21.322 11.8323 14.3625 11.8323 14.3625Z" fill="#FF785B"/>
<path d="M35.5869 20.4392L38.521 19.6566C38.6218 19.6301 38.7107 19.6536 38.7729 19.7067L38.7759 19.7052L39.1864 19.9513L38.8589 27.4871L36.0403 28.2388L35.8329 28.2225L35.3587 27.9337V27.9322C35.292 27.888 35.249 27.8143 35.249 27.717V20.8637C35.249 20.6794 35.4017 20.4878 35.5869 20.4392Z" fill="#233862"/>
<path d="M36.04 28.2403L38.9742 27.4577C39.1594 27.4076 39.312 27.216 39.312 27.0317V20.1784C39.312 19.9942 39.1594 19.8836 38.9742 19.9322L36.04 20.7149C35.8548 20.765 35.7021 20.9566 35.7021 21.1408V27.9941C35.7021 28.1784 35.8548 28.2889 36.04 28.2403Z" fill="#2B478B"/>
<path d="M38.2054 20.8283L38.8886 20.6249C38.9908 20.5939 39.0723 20.4863 39.0693 20.3832C39.0664 20.28 38.9804 20.2211 38.8782 20.252L38.195 20.4554C38.0928 20.4863 38.0113 20.5939 38.0142 20.6971C38.0157 20.8003 38.1031 20.8592 38.2054 20.8283Z" fill="#233862"/>
</svg>
